<svg xmlns="http://www.w3.org/2000/svg" width="880" height="312" viewBox="0 0 880 312" role="img" aria-label="At a glance metrics">
<style>text{font-family:ui-sans-serif, -apple-system, BlinkMacSystemFont, Segoe UI, Helvetica, Arial, sans-serif}</style>
<rect x="0.5" y="0.5" width="879" height="311" rx="10" fill="#ffffff" stroke="#d0d7de"/>
<text x="20" y="30" font-size="15" font-weight="600" fill="#1f2328">At a glance</text>
<text x="860" y="30" font-size="11" text-anchor="end" fill="#59636e">updated 2026-08-30</text>
<rect x="16.0" y="44" width="274.7" height="76" rx="8" fill="#f6f8fa" stroke="#d0d7de"/>
<text x="30.0" y="80" font-size="27" font-weight="700" fill="#0969da">120</text>
<text x="30.0" y="98" font-size="12" fill="#1f2328">open-source pull requests</text>
<text x="30.0" y="113" font-size="11" fill="#59636e">64 merged</text>
<rect x="302.7" y="44" width="274.7" height="76" rx="8" fill="#f6f8fa" stroke="#d0d7de"/>
<text x="316.7" y="80" font-size="27" font-weight="700" fill="#0969da">49</text>
<text x="316.7" y="98" font-size="12" fill="#1f2328">upstream repositories</text>
<text x="316.7" y="113" font-size="11" fill="#59636e">contributed to</text>
<rect x="589.3" y="44" width="274.7" height="76" rx="8" fill="#f6f8fa" stroke="#d0d7de"/>
<text x="603.3" y="80" font-size="27" font-weight="700" fill="#0969da">6</text>
<text x="603.3" y="98" font-size="12" fill="#1f2328">PyPI packages</text>
<text x="603.3" y="113" font-size="11" fill="#59636e">published and maintained</text>
<rect x="16.0" y="132" width="274.7" height="76" rx="8" fill="#f6f8fa" stroke="#d0d7de"/>
<text x="30.0" y="168" font-size="27" font-weight="700" fill="#0969da">150</text>
<text x="30.0" y="186" font-size="12" fill="#1f2328">active workflows</text>
<text x="30.0" y="201" font-size="11" fill="#59636e">across 53 public repositories</text>
<rect x="302.7" y="132" width="274.7" height="76" rx="8" fill="#f6f8fa" stroke="#d0d7de"/>
<text x="316.7" y="168" font-size="27" font-weight="700" fill="#0969da">25</text>
<text x="316.7" y="186" font-size="12" fill="#1f2328">of them on a schedule</text>
<text x="316.7" y="201" font-size="11" fill="#59636e">fired on cron this month</text>
<rect x="589.3" y="132" width="274.7" height="76" rx="8" fill="#f6f8fa" stroke="#d0d7de"/>
<text x="603.3" y="168" font-size="27" font-weight="700" fill="#0969da">8,243</text>
<text x="603.3" y="186" font-size="12" fill="#1f2328">workflow runs</text>
<text x="603.3" y="201" font-size="11" fill="#59636e">in the last 30 days</text>
<rect x="16.0" y="220" width="274.7" height="76" rx="8" fill="#f6f8fa" stroke="#d0d7de"/>
<text x="30.0" y="256" font-size="27" font-weight="700" fill="#0969da">15</text>
<text x="30.0" y="274" font-size="12" fill="#1f2328">Kaggle notebook medals</text>
<text x="30.0" y="289" font-size="11" fill="#59636e">bronze, Notebooks Expert</text>
<rect x="302.7" y="220" width="274.7" height="76" rx="8" fill="#f6f8fa" stroke="#d0d7de"/>
<text x="316.7" y="256" font-size="27" font-weight="700" fill="#0969da">2</text>
<text x="316.7" y="274" font-size="12" fill="#1f2328">Kaggle dataset medals</text>
<text x="316.7" y="289" font-size="11" fill="#59636e">silver</text>
<rect x="589.3" y="220" width="274.7" height="76" rx="8" fill="#f6f8fa" stroke="#d0d7de"/>
<text x="603.3" y="256" font-size="27" font-weight="700" fill="#0969da">3</text>
<text x="603.3" y="274" font-size="12" fill="#1f2328">web apps in production</text>
<text x="603.3" y="289" font-size="11" fill="#59636e">on Vercel and the Internet Computer</text>
</svg>
